<mxfile host="app.diagrams.net" agent="Mozilla/5.0 (Windows NT 10.0; Win64; x64) AppleWebKit/537.36 (KHTML, like Gecko) Chrome/130.0.0.0 Safari/537.36 Edg/130.0.0.0" version="25.0.3">
  <diagram name="第 1 页" id="iYPbP-nwEZzxUR72kebT">
    <mxGraphModel dx="1172" dy="676" grid="1" gridSize="10" guides="1" tooltips="1" connect="1" arrows="1" fold="1" page="1" pageScale="1" pageWidth="827" pageHeight="1169" math="0" shadow="0">
      <root>
        <mxCell id="0" />
        <mxCell id="1" parent="0" />
        <mxCell id="gyVPGpM11Rf2jHjIb8Zv-2" value="" style="rounded=0;whiteSpace=wrap;html=1;" vertex="1" parent="1">
          <mxGeometry x="400" y="80" width="240" height="480" as="geometry" />
        </mxCell>
        <mxCell id="gyVPGpM11Rf2jHjIb8Zv-3" value="&lt;font style=&quot;font-size: 15px;&quot;&gt;某二次设备的FB展示页&lt;/font&gt;" style="text;html=1;align=center;verticalAlign=middle;whiteSpace=wrap;rounded=0;" vertex="1" parent="1">
          <mxGeometry x="440" y="93" width="160" height="30" as="geometry" />
        </mxCell>
        <mxCell id="gyVPGpM11Rf2jHjIb8Zv-4" value="" style="rounded=1;whiteSpace=wrap;html=1;" vertex="1" parent="1">
          <mxGeometry x="450" y="150" width="160" height="60" as="geometry" />
        </mxCell>
        <mxCell id="gyVPGpM11Rf2jHjIb8Zv-8" value="" style="rounded=1;whiteSpace=wrap;html=1;" vertex="1" parent="1">
          <mxGeometry x="450" y="250" width="160" height="60" as="geometry" />
        </mxCell>
        <mxCell id="gyVPGpM11Rf2jHjIb8Zv-9" value="" style="rounded=1;whiteSpace=wrap;html=1;" vertex="1" parent="1">
          <mxGeometry x="450" y="350" width="160" height="60" as="geometry" />
        </mxCell>
        <mxCell id="gyVPGpM11Rf2jHjIb8Zv-10" value="" style="rounded=1;whiteSpace=wrap;html=1;" vertex="1" parent="1">
          <mxGeometry x="450" y="450" width="160" height="60" as="geometry" />
        </mxCell>
        <mxCell id="gyVPGpM11Rf2jHjIb8Zv-12" value="" style="shape=image;html=1;verticalAlign=top;verticalLabelPosition=bottom;labelBackgroundColor=#ffffff;imageAspect=0;aspect=fixed;image=https://cdn1.iconfinder.com/data/icons/material-core/18/check-box-outline-128.png" vertex="1" parent="1">
          <mxGeometry x="422" y="371" width="18" height="18" as="geometry" />
        </mxCell>
        <mxCell id="gyVPGpM11Rf2jHjIb8Zv-13" value="" style="shape=image;html=1;verticalAlign=top;verticalLabelPosition=bottom;labelBackgroundColor=#ffffff;imageAspect=0;aspect=fixed;image=https://cdn1.iconfinder.com/data/icons/material-core/18/check-box-outline-blank-128.png" vertex="1" parent="1">
          <mxGeometry x="422" y="271" width="18" height="18" as="geometry" />
        </mxCell>
        <mxCell id="gyVPGpM11Rf2jHjIb8Zv-15" value="" style="shape=image;html=1;verticalAlign=top;verticalLabelPosition=bottom;labelBackgroundColor=#ffffff;imageAspect=0;aspect=fixed;image=https://cdn1.iconfinder.com/data/icons/material-core/18/check-box-outline-128.png" vertex="1" parent="1">
          <mxGeometry x="422" y="471" width="18" height="18" as="geometry" />
        </mxCell>
        <mxCell id="gyVPGpM11Rf2jHjIb8Zv-16" value="" style="shape=image;html=1;verticalAlign=top;verticalLabelPosition=bottom;labelBackgroundColor=#ffffff;imageAspect=0;aspect=fixed;image=https://cdn1.iconfinder.com/data/icons/material-core/18/check-box-outline-128.png" vertex="1" parent="1">
          <mxGeometry x="422" y="171" width="18" height="18" as="geometry" />
        </mxCell>
        <mxCell id="gyVPGpM11Rf2jHjIb8Zv-17" value="FB1" style="text;html=1;align=center;verticalAlign=middle;whiteSpace=wrap;rounded=0;" vertex="1" parent="1">
          <mxGeometry x="460" y="165" width="60" height="30" as="geometry" />
        </mxCell>
        <mxCell id="gyVPGpM11Rf2jHjIb8Zv-18" value="FB2" style="text;html=1;align=center;verticalAlign=middle;whiteSpace=wrap;rounded=0;" vertex="1" parent="1">
          <mxGeometry x="460" y="265" width="60" height="30" as="geometry" />
        </mxCell>
        <mxCell id="gyVPGpM11Rf2jHjIb8Zv-19" value="FB3" style="text;html=1;align=center;verticalAlign=middle;whiteSpace=wrap;rounded=0;" vertex="1" parent="1">
          <mxGeometry x="460" y="365" width="60" height="30" as="geometry" />
        </mxCell>
        <mxCell id="gyVPGpM11Rf2jHjIb8Zv-20" value="FB4" style="text;html=1;align=center;verticalAlign=middle;whiteSpace=wrap;rounded=0;" vertex="1" parent="1">
          <mxGeometry x="460" y="465" width="60" height="30" as="geometry" />
        </mxCell>
        <mxCell id="gyVPGpM11Rf2jHjIb8Zv-21" value="" style="html=1;verticalLabelPosition=bottom;align=center;labelBackgroundColor=#ffffff;verticalAlign=top;strokeWidth=2;strokeColor=#330000;shadow=0;dashed=0;shape=mxgraph.ios7.icons.edit;fillColor=#FFFFFF;" vertex="1" parent="1">
          <mxGeometry x="580" y="170" width="20" height="20" as="geometry" />
        </mxCell>
        <mxCell id="gyVPGpM11Rf2jHjIb8Zv-23" value="" style="html=1;verticalLabelPosition=bottom;align=center;labelBackgroundColor=#ffffff;verticalAlign=top;strokeWidth=2;strokeColor=#330000;shadow=0;dashed=0;shape=mxgraph.ios7.icons.edit;fillColor=#FFFFFF;" vertex="1" parent="1">
          <mxGeometry x="580" y="270" width="20" height="20" as="geometry" />
        </mxCell>
        <mxCell id="gyVPGpM11Rf2jHjIb8Zv-24" value="" style="html=1;verticalLabelPosition=bottom;align=center;labelBackgroundColor=#ffffff;verticalAlign=top;strokeWidth=2;strokeColor=#330000;shadow=0;dashed=0;shape=mxgraph.ios7.icons.edit;fillColor=#FFFFFF;" vertex="1" parent="1">
          <mxGeometry x="580" y="370" width="20" height="20" as="geometry" />
        </mxCell>
        <mxCell id="gyVPGpM11Rf2jHjIb8Zv-25" value="" style="html=1;verticalLabelPosition=bottom;align=center;labelBackgroundColor=#ffffff;verticalAlign=top;strokeWidth=2;strokeColor=#330000;shadow=0;dashed=0;shape=mxgraph.ios7.icons.edit;fillColor=#FFFFFF;" vertex="1" parent="1">
          <mxGeometry x="580" y="470" width="20" height="20" as="geometry" />
        </mxCell>
        <mxCell id="gyVPGpM11Rf2jHjIb8Zv-27" value="" style="endArrow=classic;html=1;rounded=0;strokeColor=#FF2121;" edge="1" parent="1">
          <mxGeometry width="50" height="50" relative="1" as="geometry">
            <mxPoint x="720" y="255" as="sourcePoint" />
            <mxPoint x="600" y="195" as="targetPoint" />
          </mxGeometry>
        </mxCell>
        <mxCell id="gyVPGpM11Rf2jHjIb8Zv-28" value="&lt;font style=&quot;font-size: 15px;&quot;&gt;点击后展开FB的详情展示和编辑页&lt;/font&gt;" style="text;html=1;align=center;verticalAlign=middle;whiteSpace=wrap;rounded=0;" vertex="1" parent="1">
          <mxGeometry x="730" y="250" width="130" height="30" as="geometry" />
        </mxCell>
      </root>
    </mxGraphModel>
  </diagram>
</mxfile>
